<svg width="100" height="94" viewBox="0 0 100 94" fill="none" xmlns="http://www.w3.org/2000/svg">
<path d="M29.9339 31.9969C32.5269 30.9629 42.9169 25.6809 42.9169 25.6809L40.9279 48.1389C40.9279 48.1389 66.5449 21.6209 69.2759 23.8059C72.0099 26.0059 70.9759 36.4059 70.9759 36.4419C70.9759 36.4779 75.1449 31.8309 82.5949 27.7109C91.9749 22.5229 95.0049 22.8739 95.0049 22.8739C95.0049 22.8739 93.7989 43.8889 94.4189 45.6739C95.0409 47.4739 99.5189 50.8739 99.5189 50.9029C99.5189 50.9319 95.1339 51.6779 93.2229 51.2899C91.3109 50.8999 88.4269 48.3639 88.4269 48.3639C88.4269 48.3639 83.1009 50.9579 79.7709 50.4639C76.4419 49.9759 74.9169 43.0279 74.9169 43.0279L69.7109 48.0079C69.7109 48.0079 66.4359 71.2419 61.0569 78.0689C58.9109 81.1099 53.4129 83.4499 49.3599 82.0689C45.3049 80.6649 43.3629 71.5809 45.8499 65.9259C50.0349 56.4129 50.7299 60.8939 63.3949 38.0879C63.3949 38.0879 60.1239 38.3239 54.0409 44.3879C47.9589 50.4709 29.9419 77.6059 29.9419 77.6059C29.9419 77.6059 21.9879 92.6659 14.5799 93.3679C7.17291 94.0699 3.27191 90.4729 3.27191 90.4729C3.27191 90.4729 -3.34609 85.2859 3.38991 77.9569C10.1239 70.6259 33.2959 54.8359 33.2959 54.8359L17.5359 36.0909C17.5359 36.0999 27.2999 32.9999 29.8999 31.9969H29.9339Z" fill="#252525"/>
<path d="M70.7568 0.0638959C69.0008 -0.0531041 60.4638 2.1689 62.6858 10.9419C64.0468 16.3419 65.3858 19.7419 65.3858 19.7419C65.3858 19.7419 68.2558 18.0649 74.1628 12.5959C77.2288 9.4999 77.6998 0.999896 70.7998 0.0638959H70.7568Z" fill="#252525"/>
</svg>
