<svg xmlns="http://www.w3.org/2000/svg" xmlns:xlink="http://www.w3.org/1999/xlink" version="1.1" x="0px" y="0px" width="100px" height="95px" viewBox="0 0 100 95" enable-background="new 0 0 100 95" xml:space="preserve">
  <style>
    .style0 {
      fill: #252525;
    }
    @media (prefers-color-scheme: dark) {
      .style0 {
        fill: #757575;
        stroke: #aaa;
        stroke-width: 1px;
      }
    }
  </style>
  <g>
    <path
      d="M29.934 32.997c2.593-1.034 12.983-6.316 12.983-6.316l-1.989 22.458c0 0 25.617-26.518 28.348-24.333 c2.734 2.2 1.7 12.6 1.7 12.636s4.169-4.611 11.619-8.731c9.38-5.188 12.41-4.837 12.41-4.837s-1.206 21.015-0.586 22.8 c0.622 1.8 5.1 5.2 5.1 5.229s-4.385 0.775-6.296 0.387c-1.912-0.39-4.796-2.926-4.796-2.926s-5.326 2.594-8.656 2.1 c-3.329-0.488-4.854-7.436-4.854-7.436l-5.206 4.98c0 0-3.275 23.234-8.654 30.061c-2.146 3.041-7.644 5.381-11.697 4 c-4.055-1.404-5.997-10.488-3.51-16.143c4.185-9.513 4.88-5.032 17.545-27.838c0 0-3.271 0.236-9.354 6.3 c-6.082 6.083-24.099 33.218-24.099 33.218s-7.954 15.06-15.362 15.762c-7.407 0.702-11.308-2.895-11.308-2.895 s-6.618-5.187 0.118-12.516c6.734-7.331 29.906-23.121 29.906-23.121L17.536 37.091C17.536 37.1 27.3 34 29.9 32.997z"
      class="style0"
    />
    <path d="M16.833 42.8" class="style0" />
    <path d="M70.757 1.064c-1.756-0.117-10.293 2.105-8.071 10.878c1.361 5.4 2.7 8.8 2.7 8.8 s2.87-1.677 8.777-7.146C77.229 10.5 77.7 2 70.8 1.064z" class="style0" />
  </g>
</svg>
